<?xml version="1.0" encoding="utf-8"?>
<!-- Generator: Adobe Illustrator 19.0.0, SVG Export Plug-In . SVG Version: 6.00 Build 0)  -->
<svg version="1.1" id="圖層_1" xmlns="http://www.w3.org/2000/svg" xmlns:xlink="http://www.w3.org/1999/xlink" x="0px" y="0px"
	 viewBox="0 0 40 40" style="enable-background:new 0 0 40 40;" xml:space="preserve">
<style type="text/css">
	.st0{clip-path:url(#XMLID_2_);fill:url(#XMLID_3_);}
</style>
<g id="XMLID_4_">
	<defs>
		<path id="XMLID_40_" d="M30.2,9.1C24.9,5,19,4.4,13,7.1c-9.7,4.4-10.7,15.7-3,21.5c0.4,0.3,0.6,1.2,0.5,1.6
			c-0.5,1.4-1.2,2.7-1.9,4.2c2.7,0.3,4.9-0.6,7-2.2c0.5-0.4,1.3-0.6,1.9-0.5c4.7,0.5,9-0.4,12.8-3.3C36.8,23.3,36.8,14.1,30.2,9.1z
			 M13.6,20.5c-1,0-1.8-0.8-1.8-1.8c0-1,0.8-1.8,1.8-1.8s1.8,0.8,1.8,1.8C15.4,19.6,14.6,20.5,13.6,20.5z M20.2,20.4
			c-0.1,0-0.1,0-0.2,0c0,0,0,0,0,0c-1,0-1.8-0.8-1.8-1.8c0-1,0.8-1.8,1.8-1.8c1,0,1.8,0.8,1.8,1.8C21.8,19.6,21.1,20.3,20.2,20.4z
			 M26.3,20.5c-1,0-1.8-0.8-1.8-1.8c0-1,0.8-1.8,1.8-1.8c1,0,1.8,0.8,1.8,1.8C28.2,19.6,27.3,20.5,26.3,20.5z"/>
	</defs>
	<clipPath id="XMLID_2_">
		<use xlink:href="#XMLID_40_"  style="overflow:visible;"/>
	</clipPath>
	<linearGradient id="XMLID_3_" gradientUnits="userSpaceOnUse" x1="-4.1292" y1="44.1292" x2="44.1292" y2="-4.1292">
		<stop  offset="0" style="stop-color:#EB79F3"/>
		<stop  offset="9.815872e-002" style="stop-color:#CA73EF"/>
		<stop  offset="0.2373" style="stop-color:#A16DEA"/>
		<stop  offset="0.3804" style="stop-color:#7F67E5"/>
		<stop  offset="0.526" style="stop-color:#6563E2"/>
		<stop  offset="0.6751" style="stop-color:#535FE0"/>
		<stop  offset="0.8301" style="stop-color:#485EDE"/>
		<stop  offset="1" style="stop-color:#445DDE"/>
	</linearGradient>
	<rect id="XMLID_14_" x="-6.6" y="-1.7" class="st0" width="53.1" height="43.4"/>
</g>
</svg>
