<?xml version="1.0" encoding="utf-8"?>
<!-- Generator: Adobe Illustrator 19.0.0, SVG Export Plug-In . SVG Version: 6.00 Build 0)  -->
<svg version="1.1" id="圖層_1" xmlns="http://www.w3.org/2000/svg" xmlns:xlink="http://www.w3.org/1999/xlink" x="0px" y="0px"
	 viewBox="0 0 40 40" style="enable-background:new 0 0 40 40;" xml:space="preserve">
<style type="text/css">
	.st0{clip-path:url(#XMLID_2_);fill:url(#XMLID_4_);}
</style>
<g id="XMLID_18_">
	<defs>
		<path id="XMLID_63_" d="M35.1,20.1c0,8.4-6.8,15.1-15.3,15c-8.3-0.1-15-6.8-15-15.2c0-8.4,6.9-15.1,15.3-15.1
			C28.5,4.9,35.2,11.7,35.1,20.1z M26.8,17.6c0.4,0.5,0.7,1,1.1,1.5c-1.1,0.5-2.1,0.9-3.1,1.4c0.5,0.9,0.5,0.9,3.2,0.9
			c0.7,1.3,1.4,2.6,2.2,4.1c0.6-0.8,1.1-1.4,1.5-2c-0.5-0.4-0.9-0.7-1.6-1.4c1.4-0.3,2.5-0.5,3.5-0.7c0.6-5-2.2-11.1-6.3-12.6
			c0.1,0.8,0.2,1.4,0.3,2c-0.6,0.6-1.2,1.2-1.8,1.7c-1.1-1.6-2.9-1.3-4.9,1.6c0.5,0.4,1,0.9,1.8,1.5c0.2-0.8,0.4-1.5,0.6-2.1
			c0.6,0.3,1.2,0.7,1.9,1c0,0.2,0,0.4,0,0.6c-1.1,0.7-2.2,1.5-3.3,2.2c-0.6,0.4-1.3,0.6-2,1c-0.8,0.5-1.5,1.1-2.5,1.9
			c0,0.2,0,0.8,0.1,1.6c0.7-0.2,1.2-0.3,1.5-0.6c2.4-1.7,2.4-1.8,4-0.2C24.3,19.7,25.5,18.7,26.8,17.6z M29.8,27.2
			c-0.7-1.2-1.4-2.3-1.9-3.4c-0.4-1-1-1.2-1.9-1c-1.8,0.5-3.4,0.1-5.1-0.5c-2.4-0.8-5.2,1.2-5.3,3.9c-0.1,2,1.3,3.2,3.1,2.8
			c2.4-0.5,3.1,0.1,3.4,2.6c0.1,0.6,1,1.7,1.1,1.7c1.4-0.5,3.1-1,4.1-2.1C28.5,30.1,29.1,28.4,29.8,27.2z M11.9,12.3
			c1.2-0.3,2.2-0.4,3-0.9c0.7-0.4,1.4-1.3,1.6-2c0.2-0.7-0.4-1.3-1.4-0.8c-0.1,0-0.3-0.1-0.3-0.2c-0.8-1.7-1.3-0.5-1.6,0.2
			C12.6,9.7,12.3,11,11.9,12.3z M8.8,16.5c0.2-1.2,0.3-2.2,0.5-3.2c0.1-0.5,0.4-0.9,0.7-1.4c0.5-0.7,1-1.4,1.4-2.1
			c-0.1-0.1-0.3-0.2-0.4-0.3c-2,1.7-3.4,3.8-4.2,6.4C7.5,16.2,8.1,16.3,8.8,16.5z M19.3,16.6c-0.3-0.9-0.6-1.7-0.9-2.7
			c-0.4,1.1-0.7,1.8-1,2.7C18,16.6,18.5,16.6,19.3,16.6z"/>
	</defs>
	<clipPath id="XMLID_2_">
		<use xlink:href="#XMLID_63_"  style="overflow:visible;"/>
	</clipPath>
	<linearGradient id="XMLID_4_" gradientUnits="userSpaceOnUse" x1="-4.1293" y1="44.1292" x2="44.1292" y2="-4.1292">
		<stop  offset="0" style="stop-color:#EB79F3"/>
		<stop  offset="9.815872e-002" style="stop-color:#CA73EF"/>
		<stop  offset="0.2373" style="stop-color:#A16DEA"/>
		<stop  offset="0.3804" style="stop-color:#7F67E5"/>
		<stop  offset="0.526" style="stop-color:#6563E2"/>
		<stop  offset="0.6751" style="stop-color:#535FE0"/>
		<stop  offset="0.8301" style="stop-color:#485EDE"/>
		<stop  offset="1" style="stop-color:#445DDE"/>
	</linearGradient>
	<rect id="XMLID_17_" x="-6.6" y="-1.7" class="st0" width="53.1" height="43.4"/>
</g>
</svg>
