<?xml version="1.0" encoding="UTF-8"?>
<svg width="30px" height="38px" viewBox="0 0 30 38" version="1.1" xmlns="http://www.w3.org/2000/svg" xmlns:xlink="http://www.w3.org/1999/xlink">
    <!-- Generator: Sketch 47.1 (45422) - http://www.bohemiancoding.com/sketch -->
    <title>road-sign</title>
    <desc>Created with Sketch.</desc>
    <defs></defs>
    <g id="Page-1" stroke="none" stroke-width="1" fill="none" fill-rule="evenodd">
        <g id="Artboard-Copy" transform="translate(-145.000000, -606.000000)" fill-rule="nonzero">
            <g id="Group-7" transform="translate(99.000000, 576.000000)">
                <g id="road-sign" transform="translate(46.000000, 30.000000)">
                    <rect id="Rectangle-path" fill="#FFFFFF" x="12" y="19" width="1" height="2"></rect>
                    <path d="M12.9890456,18.0264855 L12.0264882,18.9890281 C12.0191529,18.9963584 12.0095765,19 12,19 C11.9904235,19 11.9808471,18.9963643 11.9735177,18.9890281 L11.0109544,18.0264855 C10.9963485,18.0118779 10.9963485,17.9881221 11.0109544,17.9735145 L11.9735177,17.0109719 C11.9808471,17.0036357 11.9904235,17 12,17 C12.0095765,17 12.0191529,17.0036357 12.0264882,17.0109719 L12.9890456,17.9735145 C13.0036515,17.9881221 13.0036515,18.0118779 12.9890456,18.0264855 Z" id="Shape" fill="#FFFFFF"></path>
                    <path d="M12.9890456,18.0264855 L12.0264882,18.9890281 C12.0191529,18.9963584 12.0095765,19 12,19 L12,17 C12.0095765,17 12.0191529,17.0036357 12.0264882,17.0109719 L12.9890456,17.9735145 C13.0036515,17.9881221 13.0036515,18.0118779 12.9890456,18.0264855 Z" id="Shape" fill="#FFFFFF"></path>
                    <polygon id="Shape" fill="#959595" points="11 18 12 17 13 18 12 19"></polygon>
                    <g id="direction-sign">
                        <path d="M27.5698507,14.5403437 L14.9999254,14.5403437 L14.9999254,7.20033203 L27.5852239,7.20033203 C27.6865672,7.20033203 27.7830597,7.25592187 27.8505224,7.35322266 L29.909403,10.3203398 C30.0235821,10.484957 30.0304478,10.7309922 29.925597,10.9056289 L27.851194,14.3623672 C27.7839552,14.4746602 27.6799254,14.5403437 27.5698507,14.5403437 Z" id="Shape" fill="#FFD359"></path>
                        <path d="M29.9095522,10.3203398 L27.8506716,7.35322266 C27.7831343,7.25592187 27.6866418,7.20033203 27.5853731,7.20033203 L24.9509701,7.20033203 C25.0523134,7.20033203 25.148806,7.25592187 25.2162687,7.35322266 L27.2751493,10.3203398 C27.3893284,10.484957 27.396194,10.7309922 27.2913433,10.9056289 L25.2169403,14.3623672 C25.1495522,14.4746602 25.045597,14.5403437 24.9353731,14.5403437 L27.5697761,14.5403437 C27.68,14.5403437 27.7839552,14.4745859 27.8513433,14.3623672 L29.9257463,10.9056289 C30.030597,10.7309922 30.0237313,10.484957 29.9095522,10.3203398 Z" id="Shape" fill="#E3953B"></path>
                        <polygon id="Shape" fill="#D1D3D4" points="14.9999254 12.2466133 14.9999254 9.49413672 26.5328358 9.49413672 27.365597 10.6942539 26.4340299 12.2466133"></polygon>
                        <path d="M2.43007463,24.0393047 L14.9999254,24.0393047 L14.9999254,16.699293 L2.41462687,16.699293 C2.31328358,16.699293 2.21679104,16.7548828 2.14932836,16.8521836 L0.0904477612,19.8193008 C-0.0237313433,19.983918 -0.0305970149,20.2299531 0.0742537313,20.4045898 L2.14858209,23.8613281 C2.21597015,23.9736211 2.31992537,24.0393047 2.43007463,24.0393047 Z" id="Shape" fill="#FFD359"></path>
                        <rect id="Rectangle-path" fill="#E3953B" x="11.5387313" y="16.6992188" width="3.46119403" height="7.34023437"></rect>
                        <polygon id="Shape" fill="#D1D3D4" points="3.56589552 21.7455742 2.63432836 20.1931406 3.46708955 18.9930234 13.8460448 18.9930234 13.8460448 21.7455742"></polygon>
                        <rect id="Rectangle-path" fill="#A7A9AC" x="11.5387313" y="18.9933203" width="3.46119403" height="2.75277344"></rect>
                        <rect id="Rectangle-path" fill="#FFFFFF" x="13.846194" y="2.75277344" width="2.30768657" height="34.1005469"></rect>
                        <path d="M20.7833582,38 L9.21649254,38 C9.13156716,38 9.06276119,37.9315703 9.06276119,37.8471094 L9.06276119,37.6942187 C9.06276119,36.5963008 9.95768657,35.7062695 11.0616418,35.7062695 L18.7845522,35.7062695 C19.9734328,35.7062695 20.9371642,36.6647305 20.9371642,37.8471094 L20.9371642,37.8471094 C20.9372388,37.9315703 20.8682836,38 20.7833582,38 Z" id="Shape" fill="#FF5948"></path>
                        <path d="M18.7833582,35.7062695 L16.6294776,35.7062695 C17.7340299,35.7062695 18.6294776,36.5963008 18.6294776,37.6942187 L18.6294776,38 L20.7833582,38 C20.8683582,38 20.9372388,37.9315703 20.9372388,37.8471094 L20.9372388,37.8471094 C20.9372388,36.6647305 19.9729104,35.7062695 18.7833582,35.7062695 Z" id="Shape" fill="#D44A3C"></path>
                        <ellipse id="Oval" fill="#FF5948" cx="14.9999254" cy="1.70703125" rx="1.71641791" ry="1.70703125"></ellipse>
                    </g>
                    <path d="M11.4803138,18.2346964 L11.2766882,18.0130763 C11.2557346,17.9902787 11.2268174,17.9980595 11.2120776,18.0304255 C11.1973377,18.0628011 11.2023581,18.107517 11.2232994,18.1303146 L11.3071944,18.22162 L11.2093138,18.22162 C11.0938988,18.22162 11,18.3667699 11,18.5451843 L11,18.9283092 C11,18.9679017 11.020762,19 11.0463713,19 C11.0719806,19 11.0927426,18.9679017 11.0927426,18.9283092 L11.0927426,18.5451843 C11.0927426,18.4458304 11.145037,18.3650015 11.2093138,18.3650015 L11.3071944,18.3650015 L11.2232994,18.4563069 C11.2023581,18.479095 11.1973315,18.5238204 11.2120776,18.556196 C11.2211045,18.5760209 11.2354549,18.5866215 11.2500402,18.5866215 C11.2592588,18.5866215 11.2685763,18.5823774 11.2766944,18.5735451 L11.48032,18.3519251 C11.4926548,18.338495 11.5,18.3166341 11.5,18.2933012 C11.5,18.2699682 11.4926486,18.2481264 11.4803138,18.2346964 Z" id="Shape" fill="#343434"></path>
                </g>
            </g>
        </g>
    </g>
</svg>