<?xml version="1.0" encoding="utf-8"?>
<!-- Generator: Adobe Illustrator 19.0.0, SVG Export Plug-In . SVG Version: 6.00 Build 0)  -->
<svg version="1.1" id="圖層_1" xmlns="http://www.w3.org/2000/svg" xmlns:xlink="http://www.w3.org/1999/xlink" x="0px" y="0px"
	 viewBox="0 0 40 40" style="enable-background:new 0 0 40 40;" xml:space="preserve">
<style type="text/css">
	.st0{clip-path:url(#XMLID_2_);fill:url(#XMLID_3_);}
</style>
<g id="XMLID_19_">
	<defs>
		<path id="XMLID_54_" d="M19.9,35.1c-8.4,0-15.1-6.9-15.1-15.3c0.1-8.3,6.9-15,15.2-15c8.4,0,15.1,6.9,15,15.3
			C35.1,28.5,28.3,35.2,19.9,35.1z M29.9,29.5c5.4-5.3,5.1-14.4-0.5-19.6c-5.8-5.4-15-4.8-20.1,1.4c-4.5,5.5-4.1,14.5,0.9,18.2
			c1.6-0.6,3.1-1.2,4.6-1.8c2.1-0.9,2.5-2.1,1.3-4.2c-0.7-1.2-1.7-2.5-1.9-3.8c-0.3-2-0.3-4-0.1-6c0.2-2.7,1.7-4.1,4.3-4.7
			c3-0.7,7.9,1.7,7.6,4.8c-0.3,3,0.5,6.3-1.7,9c-0.2,0.3-0.3,0.6-0.5,0.8c-1.2,1.9-0.8,3.3,1.3,4.1C26.8,28.3,28.3,28.9,29.9,29.5z"
			/>
	</defs>
	<clipPath id="XMLID_2_">
		<use xlink:href="#XMLID_54_"  style="overflow:visible;"/>
	</clipPath>
	<linearGradient id="XMLID_3_" gradientUnits="userSpaceOnUse" x1="-4.1293" y1="44.1292" x2="44.1292" y2="-4.1292">
		<stop  offset="0" style="stop-color:#EB79F3"/>
		<stop  offset="9.815872e-002" style="stop-color:#CA73EF"/>
		<stop  offset="0.2373" style="stop-color:#A16DEA"/>
		<stop  offset="0.3804" style="stop-color:#7F67E5"/>
		<stop  offset="0.526" style="stop-color:#6563E2"/>
		<stop  offset="0.6751" style="stop-color:#535FE0"/>
		<stop  offset="0.8301" style="stop-color:#485EDE"/>
		<stop  offset="1" style="stop-color:#445DDE"/>
	</linearGradient>
	<rect id="XMLID_27_" x="-6.6" y="-1.7" class="st0" width="53.1" height="43.4"/>
</g>
</svg>
