<?xml version="1.0" encoding="UTF-8"?>
<svg width="33px" height="51px" viewBox="0 0 33 51" version="1.1" xmlns="http://www.w3.org/2000/svg" xmlns:xlink="http://www.w3.org/1999/xlink">
    <!-- Generator: Sketch 47.1 (45422) - http://www.bohemiancoding.com/sketch -->
    <title>hot-air-balloon</title>
    <desc>Created with Sketch.</desc>
    <defs></defs>
    <g id="Page-1" stroke="none" stroke-width="1" fill="none" fill-rule="evenodd">
        <g id="Artboard-Copy" transform="translate(-143.000000, -710.000000)" fill-rule="nonzero">
            <g id="Group-5" transform="translate(99.000000, 686.000000)">
                <g id="hot-air-balloon" transform="translate(44.000000, 24.000000)">
                    <g id="Group" transform="translate(8.000000, 31.000000)" fill="#FF5948">
                        <path d="M5.31116867,12.9202537 C4.99974096,12.9202537 4.70674699,12.7395149 4.59153614,12.4469179 L0.0964698795,1.03670149 C-0.0519216867,0.660186567 0.15003012,0.24108209 0.547481928,0.100604478 C0.945036145,-0.0398731343 1.38734337,0.151343284 1.53563253,0.527858209 L6.0306988,11.9380746 C6.17898795,12.3145896 5.97703614,12.733694 5.57968675,12.8741716 C5.49110241,12.9054104 5.40036747,12.9202537 5.31116867,12.9202537 Z" id="Shape"></path>
                        <path d="M11.6888313,12.9202537 C11.5995301,12.9202537 11.5088976,12.9054104 11.4203133,12.8741716 C11.0229639,12.733597 10.8209096,12.3144925 10.9693012,11.9380746 L15.4643675,0.527858209 C15.612759,0.151343284 16.0551687,-0.0397761194 16.4525181,0.100604478 C16.8498675,0.241179104 17.0519217,0.660283582 16.9035301,1.03670149 L12.4084639,12.4469179 C12.293253,12.7395149 12.000259,12.9202537 11.6888313,12.9202537 Z" id="Shape"></path>
                    </g>
                    <path d="M18.2439602,39 L13.7560398,39 C13.3385034,39 13,38.6324113 13,38.1789987 L13,33.8210013 C13,33.3675887 13.3385034,33 13.7560398,33 L18.2439602,33 C18.6614966,33 19,33.3675887 19,33.8210013 L19,38.1789987 C19,38.6324113 18.6614966,39 18.2439602,39 Z" id="Shape" fill="#756A6B"></path>
                    <path d="M19.157884,33 L16,33 C16.4650522,33 16.842116,33.3673957 16.842116,33.8205171 L16.842116,38.1794829 C16.842116,38.6327039 16.4650522,39 16,39 L19.157884,39 C19.6229362,39 20,38.6326043 20,38.1794829 L20,33.8205171 C20,33.3673957 19.6229362,33 19.157884,33 Z" id="Shape" fill="#635A5B"></path>
                    <path d="M33,13.8731746 C33,23.2041005 25.6127,36 16.5,36 C7.3873,36 0,23.2041005 0,13.8731746 C0,4.54224877 7.3873,0 16.5,0 C25.6127,0 33,4.54224877 33,13.8731746 Z" id="Shape" fill="#76D1E3"></path>
                    <path d="M28,13.8731746 C28,23.2041005 22.8512231,36 16.5,36 C10.1487769,36 5,23.2041005 5,13.8731746 C5,4.54224877 10.1486764,0 16.5,0 C22.8513236,0 28,4.54224877 28,13.8731746 Z" id="Shape" fill="#FFD359"></path>
                    <path d="M22,13.8731746 C22,23.2041005 19.7614331,36 17,36 C14.2385669,36 12,23.2041005 12,13.8731746 C12,4.54224877 14.2384615,0 16.9998946,0 C19.7613277,0 22,4.54224877 22,13.8731746 Z" id="Shape" fill="#FF5948"></path>
                    <path d="M19.6001939,51 L12.3998061,51 C12.1790061,51 12,50.8208093 12,50.5997816 L12,43.2912091 C12,43.1303646 12.1302303,43 12.2909091,43 L19.7090909,43 C19.8697697,43 20,43.1303646 20,43.2912091 L20,50.5997816 C19.999903,50.8208093 19.820897,51 19.6001939,51 Z" id="Shape" fill="#756A6B"></path>
                    <path d="M17.4705815,43 L17.4705815,50.5999757 C17.4705815,50.8209064 17.2598751,51 17,51 L20.5294185,51 C20.7892936,51 21,50.8207122 21,50.5995875 L21,43.2913062 C21,43.1304617 20.8467901,43.0000971 20.6577589,43.0000971 L17.4705815,43 L17.4705815,43 Z" id="Shape" fill="#635A5B"></path>
                    <rect id="Rectangle-path" fill="#FF5948" x="12" y="46" width="8" height="1"></rect>
                </g>
            </g>
        </g>
    </g>
</svg>